<?xml version="1.0" standalone="no"?>
<!DOCTYPE svg PUBLIC "-//W3C//DTD SVG 1.1//EN" "http://www.w3.org/Graphics/SVG/1.1/DTD/svg11.dtd" >
<svg xmlns="http://www.w3.org/2000/svg">
<metadata>Generated by IcoMoon</metadata>
<defs>
<font id="FenalcoIcons" horiz-adv-x="1024">
<font-face units-per-em="1024" ascent="960" descent="-64" />
<missing-glyph horiz-adv-x="1024" />
<glyph unicode="&#x20;" horiz-adv-x="512" d="" />
<glyph unicode="&#xe900;" glyph-name="facebook" d="M725.504 447.659h-139.691v-498.005h-206.933v498.005h-98.475v175.957h98.475v113.835c0 81.408 38.656 208.896 208.896 208.896l153.344-0.683v-170.752h-111.36c-18.261 0-43.947-9.131-43.947-47.957v-103.509h157.696l-18.005-175.787z" />
<glyph unicode="&#xe901;" d="M1022.635 447.659c0-281.827-228.466-510.293-510.293-510.293s-510.293 228.466-510.293 510.293c0 281.827 228.466 510.293 510.293 510.293s510.293-228.466 510.293-510.293z" />
<glyph unicode="&#xe902;" d="M774.144 356.181c4.437 19.797 7.168 40.277 7.168 60.416 0 94.208-47.787 179.883-128.341 229.376-4.779 3.072-11.264 1.365-14.336-3.413s-1.365-11.264 3.413-14.336c74.069-45.739 118.443-124.587 118.443-211.627 0-17.749-2.048-35.84-5.803-53.248-4.779 1.024-9.557 1.365-14.677 1.365-39.936 0-72.363-32.427-72.363-72.363s32.427-72.363 72.363-72.363 72.363 32.427 72.363 72.363c0 27.648-15.701 51.541-38.229 63.829zM739.669 240.811c-28.672 0-51.883 23.211-51.883 51.883s23.211 51.883 51.883 51.883 51.883-23.211 51.883-51.883-23.211-51.883-51.883-51.883z" />
<glyph unicode="&#xe903;" d="M607.232 186.88c-30.037-12.629-62.123-18.773-94.891-18.773-66.219 0-129.707 26.624-176.128 73.387 12.971 12.971 20.821 31.061 20.821 50.859 0 39.936-32.427 72.363-72.363 72.363s-72.363-32.427-72.363-72.363 32.427-72.363 72.363-72.363c12.629 0 24.576 3.413 34.816 9.216 50.517-51.883 120.149-81.579 192.512-81.579 35.499 0 69.973 6.827 102.741 20.48 5.12 2.048 7.851 8.192 5.461 13.653-1.707 5.12-7.851 7.509-12.971 5.12zM232.789 292.352c0 28.672 23.211 51.883 51.883 51.883s51.883-23.211 51.883-51.883-23.211-51.883-51.883-51.883c-28.672 0.341-51.883 23.552-51.883 51.883z" />
<glyph unicode="&#xe904;" d="M253.611 424.789c0.341 0 0.341 0 0.683 0 5.461 0 9.899 4.096 10.24 9.557 7.509 104.448 78.507 191.488 178.176 220.501 8.875-30.037 36.523-51.883 69.291-51.883 39.936 0 72.363 32.427 72.363 72.363s-32.427 72.363-72.363 72.363-72.363-32.427-72.363-72.021c-109.568-30.379-187.733-125.611-195.925-239.616 0-6.144 4.096-10.923 9.899-11.264zM512.341 726.869c28.672 0 51.883-23.211 51.883-51.883s-23.211-51.883-51.883-51.883-51.883 23.211-51.883 51.883c0 28.672 23.211 51.883 51.883 51.883z" />
<glyph unicode="&#xe905;" d="M1022.635 447.659c0-281.827-228.466-510.293-510.293-510.293s-510.293 228.466-510.293 510.293c0 281.827 228.466 510.293 510.293 510.293s510.293-228.466 510.293-510.293z" />
<glyph unicode="&#xe906;" d="M729.429 396.117c-75.776 0-137.557-61.781-137.557-137.557s61.781-137.557 137.557-137.557 137.557 61.781 137.557 137.557-61.781 137.557-137.557 137.557zM729.429 143.872c-63.147 0-114.688 51.541-114.688 114.688s51.541 114.688 114.688 114.688 114.688-51.541 114.688-114.688c0-63.147-51.541-114.688-114.688-114.688z" />
<glyph unicode="&#xe907;" d="M798.037 269.824h-57.344v57.344c0 6.485-5.12 11.605-11.605 11.605s-11.605-5.12-11.605-11.605v-68.949c0-6.485 5.12-11.605 11.605-11.605h68.949c6.485 0 11.605 5.12 11.605 11.605s-5.12 11.605-11.605 11.605z" />
<glyph unicode="&#xe908;" d="M511.659 544.939h-229.376v-332.459h229.035v206.507h206.165v125.952h-205.824zM614.741 522.069h80.213v-80.213h-80.213v80.213zM408.576 522.069h80.213v-80.213h-80.213v80.213zM305.152 522.069h80.213v-80.213h-80.213v80.213zM305.152 418.987h80.213v-80.213h-80.213v80.213zM385.365 235.691h-80.213v80.213h80.213v-80.213zM488.789 235.691h-80.213v80.213h80.213v-80.213zM488.789 338.773h-80.213v80.213h80.213v-80.213zM591.872 441.856h-80.213v80.213h80.213v-80.213z" />
<glyph unicode="&#xe909;" d="M580.267 155.477h-355.328v447.147h550.229v-149.163c0-6.485 5.12-11.605 11.605-11.605s11.605 5.12 11.605 11.605v275.115c0 6.485-5.12 11.605-11.605 11.605h-57.344v34.133c0 6.485-5.12 11.605-11.605 11.605h-80.213c-6.485 0-11.605-5.12-11.605-11.605v-34.475h-252.245v34.475c0 6.485-5.12 11.605-11.605 11.605h-79.872c-6.485 0-11.605-5.12-11.605-11.605v-34.475h-57.003c-6.485 0-11.605-5.12-11.605-11.605v-584.704c0-6.485 5.12-11.605 11.605-11.605h366.933c6.485 0 11.605 5.12 11.605 11.605-0.341 6.827-5.461 11.947-11.947 11.947zM649.216 763.051h57.344v-68.949h-57.344v68.949zM293.888 763.051h57.344v-68.949h-57.344v68.949zM224.939 716.971h45.739v-34.475c0-6.485 5.12-11.605 11.605-11.605h80.213c6.485 0 11.605 5.12 11.605 11.605v34.475h252.245v-34.475c0-6.485 5.12-11.605 11.605-11.605h80.213c6.485 0 11.605 5.12 11.605 11.605v34.475h45.739v-91.477h-550.571v91.477z" />
<glyph unicode="&#xe90a;" d="M1022.635 447.659c0-281.827-228.466-510.293-510.293-510.293s-510.293 228.466-510.293 510.293c0 281.827 228.466 510.293 510.293 510.293s510.293-228.466 510.293-510.293z" />
<glyph unicode="&#xe90b;" d="M805.205 164.011h-28.331v412.672c0 19.115-15.701 34.816-34.816 34.816h-63.488c-19.115 0-34.816-15.701-34.816-34.816v-412.331h-72.021v225.621c0 19.115-15.701 34.816-34.816 34.816h-63.488c-19.115 0-34.816-15.701-34.816-34.816v-225.621h-72.021v116.736c0 19.115-15.701 34.816-34.816 34.816h-63.488c-19.115 0-34.816-15.701-34.816-34.816v-116.736h-30.037c-7.168 0-12.971-5.803-12.971-12.971s5.803-12.971 12.971-12.971h601.771c7.168 0 12.971 5.803 12.971 12.971 0 6.827-5.803 12.629-12.971 12.629zM340.651 164.011h-81.237v116.736c0 4.779 4.096 8.875 8.875 8.875h63.488c4.779 0 8.875-4.096 8.875-8.875v-116.736zM545.792 164.011h-81.237v225.621c0 4.779 4.096 8.875 8.875 8.875h63.488c4.779 0 8.875-4.096 8.875-8.875v-225.621zM750.933 164.011h-81.237v412.672c0 4.779 4.096 8.875 8.875 8.875h63.488c4.779 0 8.875-4.096 8.875-8.875v-412.672z" />
<glyph unicode="&#xe90c;" d="M776.875 787.627c0.341 3.413-1.024 7.168-3.755 9.899s-6.144 4.096-9.899 3.755c-0.341 0-0.341 0-0.683 0h-78.507c-7.168 0-12.971-5.803-12.971-12.971s5.803-12.971 12.971-12.971h48.469l-128-128-48.128 48.128c-2.389 2.389-5.803 3.755-9.216 3.755s-6.827-1.365-9.216-3.755l-232.789-232.789c-5.12-5.12-5.12-13.312 0-18.432 2.389-2.389 5.803-3.755 9.216-3.755s6.485 1.365 9.216 3.755l223.573 223.573 48.469-47.787c5.12-5.12 13.312-5.12 18.432 0l137.216 137.216v-43.691c0-7.168 5.803-12.971 12.971-12.971s12.971 5.803 12.971 12.971v73.387c-0.341 0.341-0.341 0.341-0.341 0.683z" />
<glyph unicode="&#xe90d;" d="M283.648 408.405c0-7.164-5.807-12.971-12.971-12.971s-12.971 5.807-12.971 12.971c0 7.164 5.807 12.971 12.971 12.971s12.971-5.807 12.971-12.971z" />
<glyph unicode="&#xe90e;" d="M1022.635 447.659c0-281.827-228.466-510.293-510.293-510.293s-510.293 228.466-510.293 510.293c0 281.827 228.466 510.293 510.293 510.293s510.293-228.466 510.293-510.293z" />
<glyph unicode="&#xe90f;" d="M810.325 503.296c-1.707 15.36-8.875 29.013-19.115 38.229-2.389 157.013-129.365 283.648-285.013 283.648s-282.624-126.976-285.013-283.648c-10.24-8.875-17.067-22.528-19.115-38.229-28.672-6.827-49.835-32.768-49.835-63.488v-67.243c0-30.72 21.163-56.661 49.835-63.488 3.072-27.989 23.552-49.835 48.469-49.835h24.917c26.965 0 48.811 25.6 48.811 57.344v179.2c0 17.749-6.827 33.451-17.749 44.032 1.365 109.909 90.112 199.339 199.339 199.339s197.973-89.088 199.339-199.339c-10.581-10.581-17.749-26.283-17.749-44.032v-178.859c0-30.379 20.139-55.296 45.397-57.344v-50.176c0-34.475-27.989-62.123-62.123-62.123h-51.2c-6.485 19.456-24.917 33.109-46.421 33.109h-34.133c-26.965 0-49.152-21.845-49.152-49.152 0-26.965 21.845-49.152 49.152-49.152h34.133c21.504 0 39.936 13.995 46.421 33.109h51.2c51.883 0 93.867 41.984 93.867 93.867v50.176c23.211 1.707 41.984 22.869 45.056 49.493 28.672 6.827 49.835 32.768 49.835 63.488v67.243c0.683 31.061-20.48 57.003-49.152 63.829v0zM201.728 342.869c-10.581 5.803-17.749 16.725-17.749 29.696v67.243c0 12.971 7.168 23.893 17.749 29.696v-126.635zM573.781 113.835h-34.133c-9.557 0-17.408 7.851-17.408 17.408s7.851 17.408 17.408 17.408h34.133c9.557 0 17.408-7.851 17.408-17.408-0.341-9.557-7.851-17.408-17.408-17.408v0zM292.864 316.928c0-13.653-8.192-25.6-17.067-25.6h-24.917c-9.216 0-17.067 11.947-17.067 25.6v178.859c0 13.653 8.192 25.6 17.067 25.6h24.917c9.216 0 17.067-11.947 17.067-25.6v-178.859zM506.197 770.56c-122.197 0-222.549-96.256-230.4-217.429v0h-22.187c8.192 134.144 118.443 240.64 252.928 240.64s244.736-106.496 252.928-240.64h-22.187c-8.533 121.173-108.885 217.429-231.083 217.429v0zM778.923 316.928c0-13.653-8.192-25.6-17.067-25.6h-24.917c-9.216 0-17.067 11.947-17.067 25.6v178.859c0 13.653 8.192 25.6 17.067 25.6h24.917c9.216 0 17.067-11.947 17.067-25.6v-178.859zM828.416 372.565c0-12.971-7.168-23.893-17.749-29.696v126.293c10.581-5.803 17.749-16.725 17.749-29.696v-66.901z" />
<glyph unicode="&#xe910;" d="M1000.533 448c0-269.81-218.724-488.533-488.533-488.533s-488.533 218.724-488.533 488.533c0 269.81 218.724 488.533 488.533 488.533s488.533-218.724 488.533-488.533z" />
<glyph unicode="&#xe911;" d="M608.256 259.157c-7.765-7.765-20.139-7.765-27.904 0-7.509 7.509-7.509 20.139 0 27.648l141.483 141.483h-466.944c-10.923 0-19.797 8.619-19.797 19.541s8.96 19.797 19.797 19.797h466.944l-141.483 141.312c-7.509 7.765-7.509 20.395 0 27.904 7.765 7.765 20.139 7.765 27.904 0l175.019-175.019c7.509-7.509 7.509-20.139 0-27.648l-175.019-175.019z" />
<glyph unicode="&#xe912;" d="M786.571 796.341l26.567 47.202h-248.004l-52.748-87.569-52.748 87.569h-248.133l26.567-47.202h192.032l7.996-16.25h-143.025l28.502-53.006h143.67l21.666-27.599v-43.204c0 0-19.99 4.385-22.569 36.498h-51.458c0 0 1.806-38.69 24.246-62.807 0 0-26.696-24.117-23.988-69.513 0 0 4.514-36.885 23.343-59.583 0 0-23.343-30.565-23.214-62.678h51.974c0 0-2.192 23.601 23.472 39.593v-38.045h43.204v38.045c25.793-15.992 23.601-39.593 23.601-39.593h51.845c0.258 32.113-23.214 62.678-23.214 62.678 18.958 22.698 23.472 59.583 23.472 59.583 2.579 45.396-23.988 69.513-23.988 69.513 22.569 24.117 24.246 62.807 24.246 62.807h-51.458c-2.579-32.113-22.44-36.498-22.44-36.498v43.204l21.538 27.599h143.541l28.631 53.006h-143.154l8.125 16.25h191.903zM489.044 527.96c-19.603 2.579-22.182 37.658-22.182 37.658 3.224 31.726 22.182 38.948 22.182 38.948v-76.607zM557.783 565.618c0 0-2.708-35.079-22.182-37.658v76.607c0 0.129 18.958-7.222 22.182-38.948z" />
<glyph unicode="&#xe913;" d="M202.608 252.486v116.071h61.517v-17.669h-36.756v-30.049h35.079v-17.797h-35.079v-50.555z" />
<glyph unicode="&#xe914;" d="M275.861 252.486v116.071h64.613v-17.669h-39.98v-28.631h36.756v-17.669h-36.756v-34.305h41.141v-17.797z" />
<glyph unicode="&#xe915;" d="M358.142 252.486v116.071h33.403l31.597-80.347h0.258v80.347h22.956v-116.071h-32.5l-32.371 84.86h-0.258v-84.86z" />
<glyph unicode="&#xe916;" d="M517.932 296.077h-23.472l11.22 50.039h0.387l11.865-50.039zM482.853 252.486l6.577 25.793h33.789l6.577-25.793h26.051l-32.242 116.071h-32.5l-32.887-116.071h24.633z" />
<glyph unicode="&#xe917;" d="M567.843 252.486v116.071h24.633v-96.854h37.143v-19.216z" />
<glyph unicode="&#xe918;" d="M639.291 310.521c0 30.694 0 59.97 40.754 59.97 25.278 0 35.466-13.671 34.434-38.69h-24.246c0 15.476-2.708 21.409-10.188 21.409-14.057 0-15.863-12.897-15.863-42.559 0-29.791 1.806-42.688 15.863-42.688 11.607 0 10.962 14.444 11.478 23.73h24.375c0-31.081-12.639-41.012-35.853-41.012-40.754-0.129-40.754 29.534-40.754 59.841z" />
<glyph unicode="&#xe919;" d="M771.353 267.962c-14.057 0-15.863 12.768-15.863 42.559 0 29.662 1.806 42.559 15.863 42.559 13.928 0 15.863-12.897 15.863-42.559 0-29.791-1.935-42.559-15.863-42.559zM771.353 250.68c40.883 0 40.883 29.534 40.883 59.97 0 30.694 0 59.97-40.883 59.97-40.754 0-40.754-29.276-40.754-59.97 0-30.436 0-59.97 40.754-59.97z" />
<glyph unicode="&#xe91a;" d="M202.092 145.443v52.49h11.091v-43.72h16.637v-8.77z" />
<glyph unicode="&#xe91b;" d="M257.161 165.046h-10.446l4.901 22.698h0.258l5.288-22.698zM241.427 145.443l3.095 11.607h15.089l2.966-11.607h11.607l-14.315 52.49h-14.702l-14.702-52.49h10.962z" />
<glyph unicode="&#xe91c;" d="M295.593 145.443v52.49h27.47v-8.125h-16.379v-13.413h15.605v-8.125h-15.605v-22.827z" />
<glyph unicode="&#xe91d;" d="M364.075 197.804v-37.272c0-7.738-4.514-15.992-18.055-15.992-12.123 0-17.926 6.19-17.926 15.992v37.272h10.962v-36.498c0-6.448 2.708-9.028 6.835-9.028 4.772 0 6.964 3.095 6.964 9.028v36.498h11.22z" />
<glyph unicode="&#xe91e;" d="M373.102 145.443v52.49h28.889v-8.125h-17.926v-13.026h16.508v-8.125h-16.508v-15.218h18.442v-7.996z" />
<glyph unicode="&#xe91f;" d="M420.691 189.808h5.030c3.482 0 5.675-1.935 5.675-6.964 0-3.482-1.29-7.867-5.675-7.867h-5.030v14.831zM420.691 167.109h2.837c8.641 0 7.996-5.417 7.996-11.607 0-3.224-0.387-6.964 1.161-10.059h10.962c-1.032 2.192-1.29 11.994-1.29 15.347 0 9.544-7.222 10.059-9.673 10.317v0c7.093 1.29 9.93 6.319 9.93 13.155 0 8.899-4.772 13.671-12.51 13.671h-20.248v-52.49h10.833v21.666z" />
<glyph unicode="&#xe920;" d="M448.548 197.804h31.984v-9.415l-22.182-34.95h22.698v-8.125h-33.403v9.673l22.182 34.821h-21.28z" />
<glyph unicode="&#xe921;" d="M509.808 165.046h-10.446l5.030 22.698h0.258l5.159-22.698zM494.074 145.443l3.095 11.607h15.218l2.837-11.607h11.736l-14.444 52.49h-14.573l-14.573-52.49h10.704z" />
<glyph unicode="&#xe922;" d="M566.295 152.536c-6.319 0-7.222 5.932-7.222 18.958 0 13.542 0.903 19.345 7.222 19.345 6.19 0 6.964-5.804 6.964-19.345 0-13.026-0.903-18.958-6.964-18.958zM588.349 153.439h-4.514c-1.161 0-3.998-1.419-5.546-1.806l-0.258 0.129c4.514 3.611 6.577 8.512 6.577 19.732 0 13.928 0 27.212-18.313 27.212-18.442 0-18.442-13.284-18.442-27.212 0-18.313 2.063-26.696 18.442-26.696 2.192 0 4.643 0.516 6.448 0.516h15.605v8.125z" />
<glyph unicode="&#xe923;" d="M628.973 197.804v-37.272c0-7.738-4.385-15.992-17.926-15.992-12.123 0-18.055 6.19-18.055 15.992v37.272h11.091v-36.498c0-6.448 2.708-9.028 6.706-9.028 4.772 0 7.093 3.095 7.093 9.028v36.498h11.091z" />
<glyph unicode="&#xe924;" d="M638.001 145.443v52.49h29.018v-8.125h-17.926v-13.026h16.379v-8.125h-16.379v-15.218h18.442v-7.996z" />
<glyph unicode="&#xe925;" d="M726.859 197.804v-37.272c0-7.738-4.514-15.992-17.797-15.992-12.123 0-17.926 6.19-17.926 15.992v37.272h11.091v-36.498c0-6.448 2.708-9.028 6.706-9.028 4.772 0 6.964 3.095 6.964 9.028v36.498h10.962z" />
<glyph unicode="&#xe926;" d="M736.016 145.443v52.49h14.96l14.057-36.369h0.129v36.369h10.317v-52.49h-14.573l-14.573 38.303h-0.129v-38.303z" />
<glyph unicode="&#xe927;" d="M784.766 145.443v52.49h28.889v-8.125h-17.797v-13.026h16.508v-8.125h-16.508v-15.218h18.442v-7.996z" />
<glyph unicode="&#xe928;" d="M198.996 229.658h611.821v-10.446h-611.821v10.446z" />
<glyph unicode="&#xe929;" d="M220.921 72.189h-7.867l-15.218 52.49h7.222l11.994-46.17h0.129l12.252 46.17h6.835z" />
<glyph unicode="&#xe92a;" d="M270.057 90.503h-16.895l8.254 27.986h0.129l8.512-27.986zM240.782 72.189h6.835l3.869 12.51h20.377l3.74-12.51h7.48l-17.153 52.49h-8.512l-16.637-52.49z" />
<glyph unicode="&#xe92b;" d="M295.335 72.189v52.49h6.577v-46.686h19.216v-5.804z" />
<glyph unicode="&#xe92c;" d="M332.736 72.189v52.49h6.706v-46.686h19.087v-5.804z" />
<glyph unicode="&#xe92d;" d="M370.265 72.189v52.49h26.954v-5.675h-20.377v-17.024h18.829v-5.804h-18.829v-18.184h20.764v-5.804z" />
<glyph unicode="&#xe92e;" d="M439.907 119.005h8.77c7.093 0 10.317-3.998 10.317-14.573v-10.575c0-12.252-3.353-15.734-12.639-15.734h-6.448v40.883zM433.201 72.189h12.123c9.157 0 14.444 2.321 17.282 6.706 2.192 3.482 3.095 9.93 3.095 21.151 0 1.677-0.258 12.252-2.321 16.637-2.579 5.675-7.351 7.996-14.186 7.996h-16.25v-52.49z" />
<glyph unicode="&#xe92f;" d="M482.724 72.189v52.49h26.954v-5.675h-20.248v-17.024h18.829v-5.804h-18.829v-18.184h20.635v-5.804z" />
<glyph unicode="&#xe930;" d="M524.252 72.189v52.49h6.835v-46.686h19.087v-5.804z" />
<glyph unicode="&#xe931;" d="M606.275 110.364c0 2.837-0.258 5.932-1.548 7.609-1.419 1.677-4.514 2.192-5.932 2.192-5.546 0-7.738-3.224-7.996-3.998-0.258-0.645-1.419-1.935-1.419-10.962v-14.057c0-12.897 4.127-14.444 9.286-14.444 1.935 0 8.125 0.774 8.254 11.091h6.964c0.258-16.508-11.478-16.508-14.831-16.508-6.448 0-16.508 0.387-16.508 20.764v14.831c0 14.96 6.448 18.958 16.766 18.958s14.444-5.288 13.799-15.347h-6.835z" />
<glyph unicode="&#xe932;" d="M653.219 90.503h-16.766l8.125 27.986h0.258l8.383-27.986zM624.073 72.189h6.706l3.869 12.51h20.377l3.74-12.51h7.48l-17.153 52.49h-8.512l-16.508-52.49z" />
<glyph unicode="&#xe933;" d="M678.239 124.808h6.577v-33.66c0-11.607 3.482-14.444 9.802-14.444s9.802 2.966 9.802 14.444v33.66h6.706v-33.403c0-14.573-5.546-20.248-16.508-20.248-11.091 0-16.508 5.675-16.508 20.248v33.403z" />
<glyph unicode="&#xe934;" d="M751.105 110.364c0 2.837-0.129 5.932-1.548 7.609s-4.514 2.192-5.804 2.192c-5.675 0-7.738-3.224-7.996-3.998-0.258-0.645-1.548-1.935-1.548-10.962v-14.057c0-12.897 4.127-14.444 9.415-14.444 2.063 0 8.254 0.774 8.383 11.091h6.835c0.129-16.508-11.349-16.508-14.831-16.508-6.448 0-16.508 0.387-16.508 20.764v14.831c0 14.96 6.448 18.958 16.766 18.958 10.446 0 14.315-5.288 13.799-15.347h-6.964z" />
<glyph unicode="&#xe935;" d="M798.049 90.503h-16.766l8.125 27.986h0.258l8.383-27.986zM768.903 72.189h6.835l3.869 12.51h20.377l3.74-12.51h7.48l-17.282 52.49h-8.383l-16.637-52.49z" />
<glyph unicode="&#xe936;" glyph-name="menu" d="M32 640h960c17.664 0 32 14.336 32 32s-14.336 32-32 32h-960c-17.664 0-32-14.336-32-32s14.336-32 32-32zM992 480h-960c-17.664 0-32-14.336-32-32s14.336-32 32-32h960c17.664 0 32 14.336 32 32s-14.336 32-32 32zM992 256h-640c-17.664 0-32-14.336-32-32s14.336-32 32-32h640c17.664 0 32 14.336 32 32s-14.336 32-32 32z" />
<glyph unicode="&#xe937;" glyph-name="search" d="M1015.040-11.776l-248.832 248.832c66.731 76.715 107.179 176.896 107.179 286.293 0 240.896-196.011 436.651-436.651 436.651-240.896 0-436.651-195.925-436.651-436.651s195.925-436.651 436.651-436.651c109.397 0 209.579 40.448 286.293 107.179l248.832-248.832c5.888-5.888 13.824-9.045 21.589-9.045s15.701 2.987 21.589 9.045c11.776 11.861 11.776 31.403 0 43.179zM61.184 523.349c0 207.104 168.448 375.381 375.296 375.381 207.104 0 375.296-168.448 375.296-375.296s-168.192-375.637-375.296-375.637c-206.848 0-375.296 168.533-375.296 375.552z" />
<glyph unicode="&#xe938;" glyph-name="twitter" d="M1019.733 758.443c-37.205-16.469-77.227-27.733-119.211-32.683 42.837 25.685 75.691 66.389 91.221 114.773-40.192-23.808-84.651-41.045-131.925-50.432-37.888 40.448-91.733 65.536-151.552 65.536-114.688 0-207.616-92.928-207.616-207.531 0-16.213 1.792-32.085 5.376-47.275-172.373 8.619-325.376 91.307-427.776 216.917-17.92-30.635-28.075-66.304-28.075-104.363 0-72.021 36.693-135.595 92.331-172.8-34.048 1.109-66.048 10.496-94.037 26.027v-2.56c0-100.523 71.595-184.491 166.485-203.52-17.408-4.693-35.755-7.253-54.699-7.253-13.397 0-26.368 1.365-39.083 3.84 26.453-82.517 103.083-142.507 193.877-144.213-70.997-55.637-160.597-88.747-257.792-88.747-16.725 0-33.28 1.024-49.493 2.816 91.904-58.965 200.96-93.44 318.208-93.44 381.867 0 590.592 316.331 590.592 590.592l-0.683 26.88c40.789 29.269 76.117 65.792 103.851 107.435z" />
<glyph unicode="&#xe939;" glyph-name="youtube" d="M984.064 746.496c-36.949 43.947-105.216 61.867-235.52 61.867h-473.088c-133.291 0-202.752-19.115-239.531-65.877-35.925-45.653-35.925-112.811-35.925-205.824v-177.323c0-180.224 42.581-271.701 275.456-271.701h473.088c112.981 0 175.616 15.787 216.149 54.613 41.557 39.765 59.307 104.704 59.307 217.088v177.323c0 98.048-2.816 165.632-39.936 209.835zM657.408 423.509l-214.869-112.299c-4.779-2.475-10.069-3.755-15.275-3.755-5.973 0-11.861 1.621-17.152 4.779-9.899 5.973-15.957 16.725-15.957 28.245v223.915c0 11.52 6.059 22.272 15.872 28.245 9.899 5.973 22.101 6.4 32.341 1.109l214.955-111.616c10.923-5.717 17.835-16.981 17.835-29.269 0-12.373-6.827-23.637-17.749-29.355z" />
</font>
</defs>
</svg>
